<mxfile host="app.diagrams.net" modified="2021-11-12T09:30:06.567Z" agent="5.0 (Macintosh; Intel Mac OS X 10_15_7) AppleWebKit/537.36 (KHTML, like Gecko) Chrome/95.0.4638.69 Safari/537.36" etag="fRTonRGZy4hJOTAPybBo" version="15.7.3" type="github">
  <diagram id="b0Tpjh87_VVN51IWTwHl" name="Page-1">
    <mxGraphModel dx="1407" dy="767" grid="1" gridSize="10" guides="1" tooltips="1" connect="1" arrows="1" fold="1" page="1" pageScale="1" pageWidth="850" pageHeight="1100" math="0" shadow="0">
      <root>
        <mxCell id="0" />
        <mxCell id="1" parent="0" />
        <mxCell id="Hoy-laHFy-wCY897moJG-11" value="HanForm" style="swimlane;fontStyle=0;childLayout=stackLayout;horizontal=1;startSize=30;horizontalStack=0;resizeParent=1;resizeParentMax=0;resizeLast=0;collapsible=1;marginBottom=0;" vertex="1" parent="1">
          <mxGeometry x="960" y="440" width="160" height="180" as="geometry" />
        </mxCell>
        <mxCell id="Hoy-laHFy-wCY897moJG-12" value="useView" style="text;strokeColor=none;fillColor=none;align=left;verticalAlign=middle;spacingLeft=4;spacingRight=4;overflow=hidden;points=[[0,0.5],[1,0.5]];portConstraint=eastwest;rotatable=0;" vertex="1" parent="Hoy-laHFy-wCY897moJG-11">
          <mxGeometry y="30" width="160" height="30" as="geometry" />
        </mxCell>
        <mxCell id="Hoy-laHFy-wCY897moJG-13" value="useSection" style="text;strokeColor=none;fillColor=none;align=left;verticalAlign=middle;spacingLeft=4;spacingRight=4;overflow=hidden;points=[[0,0.5],[1,0.5]];portConstraint=eastwest;rotatable=0;" vertex="1" parent="Hoy-laHFy-wCY897moJG-11">
          <mxGeometry y="60" width="160" height="30" as="geometry" />
        </mxCell>
        <mxCell id="Hoy-laHFy-wCY897moJG-14" value="FieldsSortable" style="text;strokeColor=none;fillColor=none;align=left;verticalAlign=middle;spacingLeft=4;spacingRight=4;overflow=hidden;points=[[0,0.5],[1,0.5]];portConstraint=eastwest;rotatable=0;" vertex="1" parent="Hoy-laHFy-wCY897moJG-11">
          <mxGeometry y="90" width="160" height="30" as="geometry" />
        </mxCell>
        <mxCell id="Hoy-laHFy-wCY897moJG-44" value="Fields" style="text;strokeColor=none;fillColor=none;align=left;verticalAlign=middle;spacingLeft=4;spacingRight=4;overflow=hidden;points=[[0,0.5],[1,0.5]];portConstraint=eastwest;rotatable=0;" vertex="1" parent="Hoy-laHFy-wCY897moJG-11">
          <mxGeometry y="120" width="160" height="30" as="geometry" />
        </mxCell>
        <mxCell id="Hoy-laHFy-wCY897moJG-81" value="..." style="text;strokeColor=none;fillColor=none;align=left;verticalAlign=middle;spacingLeft=4;spacingRight=4;overflow=hidden;points=[[0,0.5],[1,0.5]];portConstraint=eastwest;rotatable=0;" vertex="1" parent="Hoy-laHFy-wCY897moJG-11">
          <mxGeometry y="150" width="160" height="30" as="geometry" />
        </mxCell>
        <mxCell id="Hoy-laHFy-wCY897moJG-16" value="" style="shape=ext;double=1;rounded=0;whiteSpace=wrap;html=1;" vertex="1" parent="1">
          <mxGeometry x="40" y="40" width="600" height="460" as="geometry" />
        </mxCell>
        <mxCell id="Hoy-laHFy-wCY897moJG-17" value="useView" style="html=1;whiteSpace=wrap;aspect=fixed;shape=isoRectangle;" vertex="1" parent="1">
          <mxGeometry x="200" y="580" width="280" height="168" as="geometry" />
        </mxCell>
        <mxCell id="Hoy-laHFy-wCY897moJG-20" value="fields" style="swimlane;fontStyle=1;childLayout=stackLayout;horizontal=1;startSize=30;horizontalStack=0;resizeParent=1;resizeParentMax=0;resizeLast=0;collapsible=1;marginBottom=0;fontColor=#3333FF;" vertex="1" parent="1">
          <mxGeometry x="960" y="5" width="160" height="420" as="geometry" />
        </mxCell>
        <mxCell id="Hoy-laHFy-wCY897moJG-21" value="value" style="text;strokeColor=none;fillColor=none;align=left;verticalAlign=middle;spacingLeft=4;spacingRight=4;overflow=hidden;points=[[0,0.5],[1,0.5]];portConstraint=eastwest;rotatable=0;" vertex="1" parent="Hoy-laHFy-wCY897moJG-20">
          <mxGeometry y="30" width="160" height="30" as="geometry" />
        </mxCell>
        <mxCell id="Hoy-laHFy-wCY897moJG-22" value="validate" style="text;strokeColor=none;fillColor=none;align=left;verticalAlign=middle;spacingLeft=4;spacingRight=4;overflow=hidden;points=[[0,0.5],[1,0.5]];portConstraint=eastwest;rotatable=0;" vertex="1" parent="Hoy-laHFy-wCY897moJG-20">
          <mxGeometry y="60" width="160" height="30" as="geometry" />
        </mxCell>
        <mxCell id="Hoy-laHFy-wCY897moJG-23" value="componentProps" style="text;strokeColor=none;fillColor=none;align=left;verticalAlign=middle;spacingLeft=4;spacingRight=4;overflow=hidden;points=[[0,0.5],[1,0.5]];portConstraint=eastwest;rotatable=0;" vertex="1" parent="Hoy-laHFy-wCY897moJG-20">
          <mxGeometry y="90" width="160" height="30" as="geometry" />
        </mxCell>
        <mxCell id="Hoy-laHFy-wCY897moJG-25" value="apiSave" style="text;strokeColor=none;fillColor=none;align=left;verticalAlign=middle;spacingLeft=4;spacingRight=4;overflow=hidden;points=[[0,0.5],[1,0.5]];portConstraint=eastwest;rotatable=0;" vertex="1" parent="Hoy-laHFy-wCY897moJG-20">
          <mxGeometry y="120" width="160" height="30" as="geometry" />
        </mxCell>
        <mxCell id="Hoy-laHFy-wCY897moJG-26" value="apiDelete" style="text;strokeColor=none;fillColor=none;align=left;verticalAlign=middle;spacingLeft=4;spacingRight=4;overflow=hidden;points=[[0,0.5],[1,0.5]];portConstraint=eastwest;rotatable=0;" vertex="1" parent="Hoy-laHFy-wCY897moJG-20">
          <mxGeometry y="150" width="160" height="30" as="geometry" />
        </mxCell>
        <mxCell id="Hoy-laHFy-wCY897moJG-27" value="index" style="text;strokeColor=none;fillColor=none;align=left;verticalAlign=middle;spacingLeft=4;spacingRight=4;overflow=hidden;points=[[0,0.5],[1,0.5]];portConstraint=eastwest;rotatable=0;" vertex="1" parent="Hoy-laHFy-wCY897moJG-20">
          <mxGeometry y="180" width="160" height="30" as="geometry" />
        </mxCell>
        <mxCell id="Hoy-laHFy-wCY897moJG-28" value="isEdit" style="text;strokeColor=none;fillColor=none;align=left;verticalAlign=middle;spacingLeft=4;spacingRight=4;overflow=hidden;points=[[0,0.5],[1,0.5]];portConstraint=eastwest;rotatable=0;" vertex="1" parent="Hoy-laHFy-wCY897moJG-20">
          <mxGeometry y="210" width="160" height="30" as="geometry" />
        </mxCell>
        <mxCell id="Hoy-laHFy-wCY897moJG-30" value="sectionInfo" style="text;strokeColor=none;fillColor=none;align=left;verticalAlign=middle;spacingLeft=4;spacingRight=4;overflow=hidden;points=[[0,0.5],[1,0.5]];portConstraint=eastwest;rotatable=0;" vertex="1" parent="Hoy-laHFy-wCY897moJG-20">
          <mxGeometry y="240" width="160" height="30" as="geometry" />
        </mxCell>
        <mxCell id="Hoy-laHFy-wCY897moJG-31" value="options" style="text;strokeColor=none;fillColor=none;align=left;verticalAlign=middle;spacingLeft=4;spacingRight=4;overflow=hidden;points=[[0,0.5],[1,0.5]];portConstraint=eastwest;rotatable=0;" vertex="1" parent="Hoy-laHFy-wCY897moJG-20">
          <mxGeometry y="270" width="160" height="30" as="geometry" />
        </mxCell>
        <mxCell id="Hoy-laHFy-wCY897moJG-32" value="attributes" style="text;strokeColor=none;fillColor=none;align=left;verticalAlign=middle;spacingLeft=4;spacingRight=4;overflow=hidden;points=[[0,0.5],[1,0.5]];portConstraint=eastwest;rotatable=0;" vertex="1" parent="Hoy-laHFy-wCY897moJG-20">
          <mxGeometry y="300" width="160" height="30" as="geometry" />
        </mxCell>
        <mxCell id="Hoy-laHFy-wCY897moJG-33" value="attrs" style="text;strokeColor=none;fillColor=none;align=left;verticalAlign=middle;spacingLeft=4;spacingRight=4;overflow=hidden;points=[[0,0.5],[1,0.5]];portConstraint=eastwest;rotatable=0;" vertex="1" parent="Hoy-laHFy-wCY897moJG-20">
          <mxGeometry y="330" width="160" height="30" as="geometry" />
        </mxCell>
        <mxCell id="Hoy-laHFy-wCY897moJG-34" value="attrsValue" style="text;strokeColor=none;fillColor=none;align=left;verticalAlign=middle;spacingLeft=4;spacingRight=4;overflow=hidden;points=[[0,0.5],[1,0.5]];portConstraint=eastwest;rotatable=0;" vertex="1" parent="Hoy-laHFy-wCY897moJG-20">
          <mxGeometry y="360" width="160" height="30" as="geometry" />
        </mxCell>
        <mxCell id="Hoy-laHFy-wCY897moJG-35" value="columns" style="text;strokeColor=none;fillColor=none;align=left;verticalAlign=middle;spacingLeft=4;spacingRight=4;overflow=hidden;points=[[0,0.5],[1,0.5]];portConstraint=eastwest;rotatable=0;" vertex="1" parent="Hoy-laHFy-wCY897moJG-20">
          <mxGeometry y="390" width="160" height="30" as="geometry" />
        </mxCell>
        <mxCell id="Hoy-laHFy-wCY897moJG-39" value="VIEW" style="text;html=1;strokeColor=none;fillColor=none;align=center;verticalAlign=middle;whiteSpace=wrap;rounded=0;fontSize=17;fontStyle=1" vertex="1" parent="1">
          <mxGeometry x="310" y="70" width="60" height="30" as="geometry" />
        </mxCell>
        <mxCell id="Hoy-laHFy-wCY897moJG-47" value="Input" style="swimlane;fontStyle=0;childLayout=stackLayout;horizontal=1;startSize=30;horizontalStack=0;resizeParent=1;resizeParentMax=0;resizeLast=0;collapsible=1;marginBottom=0;" vertex="1" parent="1">
          <mxGeometry x="780" y="5" width="160" height="180" as="geometry" />
        </mxCell>
        <mxCell id="Hoy-laHFy-wCY897moJG-48" value="code" style="text;strokeColor=none;fillColor=none;align=left;verticalAlign=middle;spacingLeft=4;spacingRight=4;overflow=hidden;points=[[0,0.5],[1,0.5]];portConstraint=eastwest;rotatable=0;" vertex="1" parent="Hoy-laHFy-wCY897moJG-47">
          <mxGeometry y="30" width="160" height="30" as="geometry" />
        </mxCell>
        <mxCell id="Hoy-laHFy-wCY897moJG-49" value="menuKey" style="text;strokeColor=none;fillColor=none;align=left;verticalAlign=middle;spacingLeft=4;spacingRight=4;overflow=hidden;points=[[0,0.5],[1,0.5]];portConstraint=eastwest;rotatable=0;" vertex="1" parent="Hoy-laHFy-wCY897moJG-47">
          <mxGeometry y="60" width="160" height="30" as="geometry" />
        </mxCell>
        <mxCell id="Hoy-laHFy-wCY897moJG-50" value="getApi" style="text;strokeColor=none;fillColor=none;align=left;verticalAlign=middle;spacingLeft=4;spacingRight=4;overflow=hidden;points=[[0,0.5],[1,0.5]];portConstraint=eastwest;rotatable=0;" vertex="1" parent="Hoy-laHFy-wCY897moJG-47">
          <mxGeometry y="90" width="160" height="30" as="geometry" />
        </mxCell>
        <mxCell id="Hoy-laHFy-wCY897moJG-51" value="bindingFields" style="text;strokeColor=none;fillColor=none;align=left;verticalAlign=middle;spacingLeft=4;spacingRight=4;overflow=hidden;points=[[0,0.5],[1,0.5]];portConstraint=eastwest;rotatable=0;" vertex="1" parent="Hoy-laHFy-wCY897moJG-47">
          <mxGeometry y="120" width="160" height="30" as="geometry" />
        </mxCell>
        <mxCell id="Hoy-laHFy-wCY897moJG-52" value="columns" style="text;strokeColor=none;fillColor=none;align=left;verticalAlign=middle;spacingLeft=4;spacingRight=4;overflow=hidden;points=[[0,0.5],[1,0.5]];portConstraint=eastwest;rotatable=0;" vertex="1" parent="Hoy-laHFy-wCY897moJG-47">
          <mxGeometry y="150" width="160" height="30" as="geometry" />
        </mxCell>
        <mxCell id="Hoy-laHFy-wCY897moJG-53" value="Output" style="swimlane;fontStyle=0;childLayout=stackLayout;horizontal=1;startSize=30;horizontalStack=0;resizeParent=1;resizeParentMax=0;resizeLast=0;collapsible=1;marginBottom=0;" vertex="1" parent="1">
          <mxGeometry x="780" y="210" width="160" height="150" as="geometry" />
        </mxCell>
        <mxCell id="Hoy-laHFy-wCY897moJG-54" value="fields" style="text;strokeColor=none;fillColor=none;align=left;verticalAlign=middle;spacingLeft=4;spacingRight=4;overflow=hidden;points=[[0,0.5],[1,0.5]];portConstraint=eastwest;rotatable=0;fontColor=#3333FF;fontStyle=1" vertex="1" parent="Hoy-laHFy-wCY897moJG-53">
          <mxGeometry y="30" width="160" height="30" as="geometry" />
        </mxCell>
        <mxCell id="Hoy-laHFy-wCY897moJG-55" value="loading" style="text;strokeColor=none;fillColor=none;align=left;verticalAlign=middle;spacingLeft=4;spacingRight=4;overflow=hidden;points=[[0,0.5],[1,0.5]];portConstraint=eastwest;rotatable=0;" vertex="1" parent="Hoy-laHFy-wCY897moJG-53">
          <mxGeometry y="60" width="160" height="30" as="geometry" />
        </mxCell>
        <mxCell id="Hoy-laHFy-wCY897moJG-56" value="noData" style="text;strokeColor=none;fillColor=none;align=left;verticalAlign=middle;spacingLeft=4;spacingRight=4;overflow=hidden;points=[[0,0.5],[1,0.5]];portConstraint=eastwest;rotatable=0;" vertex="1" parent="Hoy-laHFy-wCY897moJG-53">
          <mxGeometry y="90" width="160" height="30" as="geometry" />
        </mxCell>
        <mxCell id="Hoy-laHFy-wCY897moJG-57" value="onRefresh" style="text;strokeColor=none;fillColor=none;align=left;verticalAlign=middle;spacingLeft=4;spacingRight=4;overflow=hidden;points=[[0,0.5],[1,0.5]];portConstraint=eastwest;rotatable=0;" vertex="1" parent="Hoy-laHFy-wCY897moJG-53">
          <mxGeometry y="120" width="160" height="30" as="geometry" />
        </mxCell>
        <mxCell id="Hoy-laHFy-wCY897moJG-59" value="Input" style="text;html=1;strokeColor=none;fillColor=none;align=center;verticalAlign=middle;whiteSpace=wrap;rounded=0;" vertex="1" parent="1">
          <mxGeometry x="240" y="500" width="60" height="30" as="geometry" />
        </mxCell>
        <mxCell id="Hoy-laHFy-wCY897moJG-60" value="Ouput" style="text;html=1;strokeColor=none;fillColor=none;align=center;verticalAlign=middle;whiteSpace=wrap;rounded=0;" vertex="1" parent="1">
          <mxGeometry x="380" y="500" width="60" height="30" as="geometry" />
        </mxCell>
        <mxCell id="Hoy-laHFy-wCY897moJG-61" value="" style="rounded=0;whiteSpace=wrap;html=1;" vertex="1" parent="1">
          <mxGeometry x="60" y="180" width="560" height="270" as="geometry" />
        </mxCell>
        <mxCell id="Hoy-laHFy-wCY897moJG-62" value="ViewContext" style="text;html=1;strokeColor=none;fillColor=none;align=center;verticalAlign=middle;whiteSpace=wrap;rounded=0;fontStyle=1" vertex="1" parent="1">
          <mxGeometry x="310" y="185" width="60" height="30" as="geometry" />
        </mxCell>
        <mxCell id="Hoy-laHFy-wCY897moJG-63" value="Basic Information" style="swimlane;" vertex="1" parent="1">
          <mxGeometry x="90" y="230" width="230" height="170" as="geometry" />
        </mxCell>
        <mxCell id="Hoy-laHFy-wCY897moJG-64" value="Fields / FieldsSortable" style="swimlane;fontStyle=0;childLayout=stackLayout;horizontal=1;startSize=30;horizontalStack=0;resizeParent=1;resizeParentMax=0;resizeLast=0;collapsible=1;marginBottom=0;" vertex="1" parent="Hoy-laHFy-wCY897moJG-63">
          <mxGeometry x="10" y="35" width="210" height="120" as="geometry" />
        </mxCell>
        <mxCell id="Hoy-laHFy-wCY897moJG-65" value="Field 1" style="text;strokeColor=none;fillColor=none;align=left;verticalAlign=middle;spacingLeft=4;spacingRight=4;overflow=hidden;points=[[0,0.5],[1,0.5]];portConstraint=eastwest;rotatable=0;" vertex="1" parent="Hoy-laHFy-wCY897moJG-64">
          <mxGeometry y="30" width="210" height="30" as="geometry" />
        </mxCell>
        <mxCell id="Hoy-laHFy-wCY897moJG-66" value="Field 2" style="text;strokeColor=none;fillColor=none;align=left;verticalAlign=middle;spacingLeft=4;spacingRight=4;overflow=hidden;points=[[0,0.5],[1,0.5]];portConstraint=eastwest;rotatable=0;" vertex="1" parent="Hoy-laHFy-wCY897moJG-64">
          <mxGeometry y="60" width="210" height="30" as="geometry" />
        </mxCell>
        <mxCell id="Hoy-laHFy-wCY897moJG-67" value="Field 3" style="text;strokeColor=none;fillColor=none;align=left;verticalAlign=middle;spacingLeft=4;spacingRight=4;overflow=hidden;points=[[0,0.5],[1,0.5]];portConstraint=eastwest;rotatable=0;" vertex="1" parent="Hoy-laHFy-wCY897moJG-64">
          <mxGeometry y="90" width="210" height="30" as="geometry" />
        </mxCell>
        <mxCell id="Hoy-laHFy-wCY897moJG-68" value="ViewContext" style="swimlane;fontStyle=0;childLayout=stackLayout;horizontal=1;startSize=30;horizontalStack=0;resizeParent=1;resizeParentMax=0;resizeLast=0;collapsible=1;marginBottom=0;" vertex="1" parent="1">
          <mxGeometry x="780" y="370" width="160" height="120" as="geometry" />
        </mxCell>
        <mxCell id="Hoy-laHFy-wCY897moJG-69" value="dispatch" style="text;strokeColor=none;fillColor=none;align=left;verticalAlign=middle;spacingLeft=4;spacingRight=4;overflow=hidden;points=[[0,0.5],[1,0.5]];portConstraint=eastwest;rotatable=0;" vertex="1" parent="Hoy-laHFy-wCY897moJG-68">
          <mxGeometry y="30" width="160" height="30" as="geometry" />
        </mxCell>
        <mxCell id="Hoy-laHFy-wCY897moJG-70" value="fields" style="text;strokeColor=none;fillColor=none;align=left;verticalAlign=middle;spacingLeft=4;spacingRight=4;overflow=hidden;points=[[0,0.5],[1,0.5]];portConstraint=eastwest;rotatable=0;" vertex="1" parent="Hoy-laHFy-wCY897moJG-68">
          <mxGeometry y="60" width="160" height="30" as="geometry" />
        </mxCell>
        <mxCell id="Hoy-laHFy-wCY897moJG-71" value="...." style="text;strokeColor=none;fillColor=none;align=left;verticalAlign=middle;spacingLeft=4;spacingRight=4;overflow=hidden;points=[[0,0.5],[1,0.5]];portConstraint=eastwest;rotatable=0;" vertex="1" parent="Hoy-laHFy-wCY897moJG-68">
          <mxGeometry y="90" width="160" height="30" as="geometry" />
        </mxCell>
        <mxCell id="Hoy-laHFy-wCY897moJG-73" value="More Information" style="swimlane;" vertex="1" parent="1">
          <mxGeometry x="350" y="230" width="230" height="170" as="geometry" />
        </mxCell>
        <mxCell id="Hoy-laHFy-wCY897moJG-74" value="Fields / FieldsSortable" style="swimlane;fontStyle=0;childLayout=stackLayout;horizontal=1;startSize=30;horizontalStack=0;resizeParent=1;resizeParentMax=0;resizeLast=0;collapsible=1;marginBottom=0;" vertex="1" parent="Hoy-laHFy-wCY897moJG-73">
          <mxGeometry x="10" y="35" width="210" height="120" as="geometry" />
        </mxCell>
        <mxCell id="Hoy-laHFy-wCY897moJG-75" value="Field 1" style="text;strokeColor=none;fillColor=none;align=left;verticalAlign=middle;spacingLeft=4;spacingRight=4;overflow=hidden;points=[[0,0.5],[1,0.5]];portConstraint=eastwest;rotatable=0;" vertex="1" parent="Hoy-laHFy-wCY897moJG-74">
          <mxGeometry y="30" width="210" height="30" as="geometry" />
        </mxCell>
        <mxCell id="Hoy-laHFy-wCY897moJG-76" value="Field 2" style="text;strokeColor=none;fillColor=none;align=left;verticalAlign=middle;spacingLeft=4;spacingRight=4;overflow=hidden;points=[[0,0.5],[1,0.5]];portConstraint=eastwest;rotatable=0;" vertex="1" parent="Hoy-laHFy-wCY897moJG-74">
          <mxGeometry y="60" width="210" height="30" as="geometry" />
        </mxCell>
        <mxCell id="Hoy-laHFy-wCY897moJG-77" value="Field 3" style="text;strokeColor=none;fillColor=none;align=left;verticalAlign=middle;spacingLeft=4;spacingRight=4;overflow=hidden;points=[[0,0.5],[1,0.5]];portConstraint=eastwest;rotatable=0;" vertex="1" parent="Hoy-laHFy-wCY897moJG-74">
          <mxGeometry y="90" width="210" height="30" as="geometry" />
        </mxCell>
        <mxCell id="Hoy-laHFy-wCY897moJG-79" value="" style="endArrow=classic;html=1;rounded=0;fontFamily=Times New Roman;fontSize=17;exitX=0.463;exitY=1.008;exitDx=0;exitDy=0;exitPerimeter=0;entryX=0.421;entryY=0.065;entryDx=0;entryDy=0;entryPerimeter=0;" edge="1" parent="1" source="Hoy-laHFy-wCY897moJG-16" target="Hoy-laHFy-wCY897moJG-17">
          <mxGeometry width="50" height="50" relative="1" as="geometry">
            <mxPoint x="240" y="530" as="sourcePoint" />
            <mxPoint x="290" y="480" as="targetPoint" />
          </mxGeometry>
        </mxCell>
        <mxCell id="Hoy-laHFy-wCY897moJG-80" value="" style="endArrow=classic;html=1;rounded=0;fontFamily=Times New Roman;fontSize=17;exitX=0.571;exitY=0.077;exitDx=0;exitDy=0;exitPerimeter=0;entryX=0.533;entryY=1.002;entryDx=0;entryDy=0;entryPerimeter=0;" edge="1" parent="1" source="Hoy-laHFy-wCY897moJG-17" target="Hoy-laHFy-wCY897moJG-16">
          <mxGeometry width="50" height="50" relative="1" as="geometry">
            <mxPoint x="450" y="570" as="sourcePoint" />
            <mxPoint x="360" y="520" as="targetPoint" />
          </mxGeometry>
        </mxCell>
        <mxCell id="Hoy-laHFy-wCY897moJG-82" value="&lt;font color=&quot;#000000&quot; style=&quot;font-size: 14px&quot;&gt;useSection&lt;/font&gt;" style="html=1;whiteSpace=wrap;aspect=fixed;shape=isoRectangle;fontFamily=Times New Roman;fontSize=17;fontColor=#3333FF;" vertex="1" parent="1">
          <mxGeometry x="150.82999999999998" y="110" width="108.34" height="65" as="geometry" />
        </mxCell>
        <mxCell id="Hoy-laHFy-wCY897moJG-86" value="" style="endArrow=classic;html=1;rounded=0;fontFamily=Times New Roman;fontSize=14;fontColor=#000000;exitX=0.509;exitY=0.985;exitDx=0;exitDy=0;exitPerimeter=0;" edge="1" parent="1" source="Hoy-laHFy-wCY897moJG-82" target="Hoy-laHFy-wCY897moJG-63">
          <mxGeometry width="50" height="50" relative="1" as="geometry">
            <mxPoint x="80" y="210" as="sourcePoint" />
            <mxPoint x="130" y="160" as="targetPoint" />
          </mxGeometry>
        </mxCell>
        <mxCell id="Hoy-laHFy-wCY897moJG-89" value="&lt;font color=&quot;#000000&quot; style=&quot;font-size: 14px&quot;&gt;useSection&lt;/font&gt;" style="html=1;whiteSpace=wrap;aspect=fixed;shape=isoRectangle;fontFamily=Times New Roman;fontSize=17;fontColor=#3333FF;" vertex="1" parent="1">
          <mxGeometry x="410.83" y="110" width="108.34" height="65" as="geometry" />
        </mxCell>
        <mxCell id="Hoy-laHFy-wCY897moJG-90" value="" style="endArrow=classic;html=1;rounded=0;fontFamily=Times New Roman;fontSize=14;fontColor=#000000;exitX=0.509;exitY=0.985;exitDx=0;exitDy=0;exitPerimeter=0;" edge="1" parent="1" source="Hoy-laHFy-wCY897moJG-89">
          <mxGeometry width="50" height="50" relative="1" as="geometry">
            <mxPoint x="340" y="210" as="sourcePoint" />
            <mxPoint x="465.58790636637696" y="230" as="targetPoint" />
          </mxGeometry>
        </mxCell>
      </root>
    </mxGraphModel>
  </diagram>
</mxfile>
